<svg width="128" height="126" xmlns="http://www.w3.org/2000/svg" xmlns:xlink="http://www.w3.org/1999/xlink" overflow="hidden"><g transform="translate(-565 -73)"><g><g><g><path d="M143.474 51.6667C144.487 52.9199 146.007 53.6426 147.643 53.6426 150.617 53.6426 153.034 51.2222 153.034 48.252 153.034 46.6151 152.315 45.0933 151.058 44.0829 147.733 41.4005 145.824 37.4135 145.824 33.1485 145.824 28.8803 147.733 24.8966 151.058 22.2141 152.315 21.2006 153.034 19.682 153.034 18.045 153.034 15.0716 150.617 12.6545 147.643 12.6545 146.007 12.6545 144.487 13.3738 143.474 14.6304 140.792 17.9554 136.808 19.861 132.54 19.861 128.275 19.861 124.288 17.9554 121.605 14.6304 120.595 13.3738 119.073 12.6545 117.436 12.6545 114.463 12.6545 112.046 15.0716 112.046 18.045 112.046 19.682 112.765 21.2006 114.022 22.2141 117.347 24.8966 119.255 28.8803 119.255 33.1485 119.255 37.4135 117.347 41.4005 114.022 44.0829 112.765 45.0933 112.046 46.6151 112.046 48.252 112.046 51.2222 114.463 53.6426 117.436 53.6426 119.073 53.6426 120.595 52.9199 121.605 51.6667 124.288 48.3416 128.275 46.4329 132.54 46.4329 136.808 46.4329 140.792 48.3416 143.474 51.6667ZM119.981 50.3558C119.367 51.1167 118.44 51.5548 117.436 51.5548 115.614 51.5548 114.133 50.0713 114.133 48.252 114.133 47.2482 114.571 46.321 115.332 45.7071 119.15 42.625 121.343 38.0498 121.343 33.1485 121.343 28.2472 119.15 23.6689 115.332 20.5899 114.571 19.976 114.133 19.0489 114.133 18.045 114.133 16.2226 115.614 14.7422 117.436 14.7422 118.44 14.7422 119.367 15.1771 119.981 15.9381 123.06 19.7586 127.638 21.9487 132.54 21.9487 137.441 21.9487 142.02 19.7586 145.098 15.9381 145.712 15.1771 146.639 14.7422 147.643 14.7422 149.465 14.7422 150.946 16.2226 150.946 18.045 150.946 19.0489 150.511 19.976 149.747 20.5899 145.93 23.6689 143.739 28.2472 143.739 33.1485 143.739 38.0498 145.93 42.625 149.747 45.7071 150.511 46.321 150.946 47.2482 150.946 48.252 150.946 50.0713 149.465 51.5548 147.643 51.5548 146.639 51.5548 145.712 51.1167 145.098 50.3558 142.02 46.5352 137.441 44.3451 132.54 44.3451 127.638 44.3451 123.06 46.5352 119.981 50.3558Z" fill="#FFFFFF" transform="matrix(1.00343 0 0 1 491.769 74)"/><g><path d="M114.45 30.0153C115.025 30.0153 115.492 29.5485 115.492 28.9729 115.492 28.3943 115.025 27.9275 114.45 27.9275 107.337 27.9275 101.552 22.1406 101.552 15.03 101.552 7.91626 107.337 2.13253 114.45 2.13253 121.561 2.13253 127.348 7.91626 127.348 15.03 127.348 15.6055 127.814 16.0723 128.393 16.0723 128.968 16.0723 129.436 15.6055 129.436 15.03 129.436 6.76526 122.712 0.0447607 114.45 0.0447607 106.185 0.0447607 99.4644 6.76526 99.4644 15.03 99.4644 23.2947 106.185 30.0153 114.45 30.0153Z" fill="#FFFFFF" transform="matrix(1.00343 0 0 1 491.769 74)"/></g><g><path d="M136.686 16.0723C137.265 16.0723 137.732 15.6055 137.732 15.03 137.732 7.91626 143.519 2.13253 150.629 2.13253 157.744 2.13253 163.53 7.91626 163.53 15.03 163.53 22.1406 157.744 27.9275 150.629 27.9275 150.054 27.9275 149.587 28.3943 149.587 28.9729 149.587 29.5485 150.054 30.0153 150.629 30.0153 158.894 30.0153 165.615 23.2947 165.615 15.03 165.615 6.76526 158.894 0.0447607 150.629 0.0447607 142.368 0.0447607 135.645 6.76526 135.645 15.03 135.645 15.6055 136.111 16.0723 136.686 16.0723Z" fill="#FFFFFF" transform="matrix(1.00343 0 0 1 491.769 74)"/></g><g><path d="M128.393 50.2216C127.814 50.2216 127.348 50.6883 127.348 51.267 127.348 58.3776 121.561 64.1645 114.45 64.1645 107.337 64.1645 101.552 58.3776 101.552 51.267 101.552 44.1533 107.337 38.3663 114.45 38.3663 115.025 38.3663 115.492 37.8996 115.492 37.3241 115.492 36.7453 115.025 36.2786 114.45 36.2786 106.185 36.2786 99.4644 43.0023 99.4644 51.267 99.4644 59.5286 106.185 66.2523 114.45 66.2523 122.712 66.2523 129.436 59.5286 129.436 51.267 129.436 50.6883 128.968 50.2216 128.393 50.2216Z" fill="#FFFFFF" transform="matrix(1.00343 0 0 1 491.769 74)"/></g><g><path d="M150.629 36.2786C150.054 36.2786 149.587 36.7453 149.587 37.3241 149.587 37.8996 150.054 38.3663 150.629 38.3663 157.744 38.3663 163.53 44.1533 163.53 51.267 163.53 58.3776 157.744 64.1645 150.629 64.1645 143.519 64.1645 137.732 58.3776 137.732 51.267 137.732 50.6883 137.265 50.2216 136.686 50.2216 136.111 50.2216 135.645 50.6883 135.645 51.267 135.645 59.5286 142.368 66.2523 150.629 66.2523 158.894 66.2523 165.615 59.5286 165.615 51.267 165.615 43.0023 158.894 36.2786 150.629 36.2786Z" fill="#FFFFFF" transform="matrix(1.00343 0 0 1 491.769 74)"/></g><path d="M134.899 32.1031 130.18 32.1031C129.605 32.1031 129.138 32.5698 129.138 33.1485 129.138 33.724 129.605 34.1908 130.18 34.1908L134.899 34.1908C135.475 34.1908 135.945 33.724 135.945 33.1485 135.945 32.5698 135.475 32.1031 134.899 32.1031Z" fill="#FFFFFF" transform="matrix(1.00343 0 0 1 491.769 74)"/><path d="M5.53754-14.8478C5.53754-14.2084 5.80931-13.7096 6.35602-13.3515 6.89955-12.9934 7.72442-12.6545 8.82422-12.3412 10.3333-11.9064 11.6186-11.4204 12.6865-10.8833 13.7607-10.3461 14.5728-9.68428 15.1291-8.90099 15.6919-8.11448 15.9732-7.14893 15.9732-5.99793 15.9732-4.80219 15.6823-3.72793 15.1035-2.77516 14.5312-1.8288 13.6872-1.07746 12.5714-0.52434 11.4619 0.0287747 10.0967 0.306931 8.47898 0.306931 6.55106 0.306931 4.88851-0.127888 3.49133-0.997525 2.10056-1.86716 1.10304-3.03094 0.498762-4.48887L4.15635-6.36881C4.54641-5.47999 5.1315-4.7862 5.90842-4.28425 6.68213-3.77909 7.58694-3.5297 8.6196-3.5297 9.54039-3.5297 10.2854-3.72793 10.8577-4.13078 11.4267-4.54002 11.7145-5.05796 11.7145-5.691 11.7145-6.09066 11.5994-6.43276 11.3692-6.71411 11.1454-7.00186 10.7553-7.26723 10.1926-7.50702 9.62993-7.7532 8.84984-8.02496 7.85231-8.32552 6.75887-8.65798 5.79651-9.01926 4.96205-9.41254 4.12438-9.80263 3.43059-10.2694 2.87747-10.8065 2.3979-11.2573 2.01423-11.8041 1.72649-12.4435 1.44513-13.0893 1.30446-13.8055 1.30446-14.592 1.30446-15.8101 1.62737-16.8812 2.2764-17.802 2.93183-18.7228 3.79826-19.4421 4.87252-19.9633 5.95318-20.4909 7.13934-20.7562 8.42783-20.7562 10.1319-20.7562 11.6058-20.3661 12.8527-19.5924 14.0965-18.8155 15.0173-17.7317 15.6151-16.3441L12.111-14.4385C11.7784-15.257 11.2669-15.8772 10.5763-16.3057 9.89209-16.7309 9.11838-16.9451 8.24874-16.9451 7.39511-16.9451 6.7301-16.7469 6.25371-16.3569 5.77414-15.9636 5.53754-15.4616 5.53754-14.8478Z" fill="#EFEFEF" transform="matrix(1.00343 0 0 1 577.481 175.38)"/><path d="M17.2777-13.8887C17.2777-12.3859 16.9483-11.1422 16.2929-10.1543 15.6439-9.16315 14.7582-8.42144 13.6328-7.92904 12.5139-7.44307 11.2414-7.20009 9.80901-7.20009L6.59901-7.20009 6.59901 0 2.37871 0 2.37871-20.4365 9.97525-20.4365C11.3469-20.4365 12.5778-20.1935 13.6712-19.7075 14.7711-19.2216 15.6439-18.4861 16.2929-17.5078 16.9483-16.5359 17.2777-15.3274 17.2777-13.8887ZM13.0189-13.7863C13.0189-14.4417 12.8527-14.9661 12.5202-15.3593 12.1941-15.7494 11.7721-16.0275 11.2541-16.1906 10.7426-16.3601 10.1926-16.4464 9.60439-16.4464L6.59901-16.4464 6.59901-11.1518 9.62993-11.1518C10.1831-11.1518 10.7202-11.235 11.2414-11.4076 11.7689-11.577 12.1941-11.8584 12.5202-12.2517 12.8527-12.6417 13.0189-13.1532 13.0189-13.7863Z" fill="#EFEFEF" transform="matrix(1.00343 0 0 1 594.608 175.38)"/><path d="M4.23309 0-0.0255776 0 7.77558-20.4365 12.8656-20.4365 20.7051 0 16.3441 0 14.7966-4.11799 5.74216-4.11799ZM10.2822-16.3441 7.20009-8.04414 13.3643-8.04414Z" fill="#EFEFEF" transform="matrix(1.00343 0 0 1 612.782 175.38)"/><path d="M18.0834 0 13.3899 0 9.15677-7.34076 6.59901-7.34076 6.59901 0 2.37871 0 2.37871-20.4365 10.4356-20.4365C11.7657-20.4365 12.9742-20.1967 14.0677-19.7203 15.1675-19.2407 16.0404-18.5213 16.6893-17.559 17.3448-16.6031 17.6741-15.4041 17.6741-13.9653 17.6741-10.9888 16.2705-8.99692 13.4666-7.99298ZM10.1287-11.2541C10.6466-11.2541 11.1582-11.3373 11.6634-11.5099 12.1749-11.6793 12.5873-11.9575 12.9039-12.3412 13.2268-12.7249 13.3899-13.2396 13.3899-13.8887 13.3899-14.544 13.2236-15.0556 12.8911-15.4233 12.5586-15.7878 12.1429-16.0499 11.6506-16.2034 11.155-16.3633 10.6403-16.4464 10.1032-16.4464L6.59901-16.4464 6.59901-11.2541Z" fill="#EFEFEF" transform="matrix(1.00343 0 0 1 633.576 175.38)"/><path d="M6.57343 0 2.37871 0 2.37871-20.4365 6.57343-20.4365 6.57343-11.5355 13.5945-20.4365 18.8762-20.4365 11.0623-10.6787 19.3878 0 13.9397 0 6.57343-9.7067Z" fill="#EFEFEF" transform="matrix(1.00343 0 0 1 652.773 175.38)"/><path d="M1.53465-1.98226 1.53465 0 0.537129 0 0.537129-4.96205 2.36592-4.96205C2.93503-4.96205 3.37624-4.81497 3.68317-4.52723 3.99649-4.24587 4.15635-3.89099 4.15635-3.46576 4.15635-3.15883 4.05724-2.86789 3.86221-2.59613 3.67358-2.32117 3.37624-2.13892 2.967-2.0462L4.23309 0 3.05652 0 1.86716-1.98226ZM1.53465-4.19472 1.53465-2.74959 2.36592-2.74959C2.61211-2.74959 2.80075-2.81353 2.92863-2.94142 3.06291-3.06931 3.13325-3.24196 3.13325-3.46576 3.13325-3.68637 3.06291-3.86221 2.92863-3.9901 2.80075-4.12438 2.61211-4.19472 2.36592-4.19472Z" fill="#EFEFEF" transform="matrix(1.00343 0 0 1 599.589 191.556)"/><path d="M3.88779-1.30446C4.16914-1.60179 4.30981-1.99825 4.30981-2.49382 4.30981-2.98618 4.16914-3.37944 3.88779-3.67038 3.60644-3.96772 3.23876-4.11799 2.78795-4.11799 2.34354-4.11799 1.98226-3.96772 1.7009-3.67038 1.41956-3.36985 1.27888-2.97339 1.27888-2.48102 1.27888-1.99505 1.41956-1.60179 1.7009-1.30446 1.98226-1.01351 2.34354-0.869637 2.78795-0.869637 3.23876-0.869637 3.60644-1.01351 3.88779-1.30446ZM2.78795 0.0511551C2.07817 0.0511551 1.47711-0.185437 0.984732-0.665017 0.498762-1.1414 0.255776-1.74567 0.255776-2.48102 0.255776-3.22277 0.498762-3.83024 0.984732-4.30981 1.47711-4.7958 2.07817-5.03878 2.78795-5.03878 3.50413-5.03878 4.10519-4.7958 4.59118-4.30981 5.08354-3.83024 5.33292-3.22277 5.33292-2.48102 5.33292-1.74567 5.08354-1.1414 4.59118-0.665017 4.10519-0.185437 3.50413 0.0511551 2.78795 0.0511551Z" fill="#EFEFEF" transform="matrix(1.00343 0 0 1 606.172 191.556)"/><path d="M0.537129-4.96205 2.54497-4.96205C3.05652-4.96205 3.45617-4.83736 3.74711-4.59118 4.03486-4.34179 4.18193-4.03166 4.18193-3.65759 4.18193-3.10128 3.85582-2.72721 3.20999-2.53218 3.54249-2.48742 3.80466-2.34674 4.00288-2.11014 4.19792-1.87995 4.29703-1.61139 4.29703-1.30446 4.29703-0.9112 4.14676-0.594678 3.84942-0.358086 3.55848-0.118296 3.16202 0 2.66007 0L0.537129 0ZM1.53465-4.19472 1.53465-2.90306 2.44266-2.90306C2.66327-2.90306 2.83911-2.9574 2.967-3.06931 3.09488-3.1876 3.15883-3.34427 3.15883-3.54249 3.15883-3.74711 3.09488-3.90377 2.967-4.01568 2.83911-4.13397 2.66327-4.19472 2.44266-4.19472ZM1.53465-0.767327 2.54497-0.767327C2.76558-0.767327 2.94462-0.824874 3.08209-0.94637 3.21638-1.06466 3.28671-1.23092 3.28671-1.44513 3.28671-1.65615 3.21638-1.8224 3.08209-1.94389 2.94462-2.07178 2.76238-2.13573 2.53218-2.13573L1.53465-2.13573Z" fill="#EFEFEF" transform="matrix(1.00343 0 0 1 613.731 191.556)"/><path d="M3.88779-1.30446C4.16914-1.60179 4.30981-1.99825 4.30981-2.49382 4.30981-2.98618 4.16914-3.37944 3.88779-3.67038 3.60644-3.96772 3.23876-4.11799 2.78795-4.11799 2.34354-4.11799 1.98226-3.96772 1.7009-3.67038 1.41956-3.36985 1.27888-2.97339 1.27888-2.48102 1.27888-1.99505 1.41956-1.60179 1.7009-1.30446 1.98226-1.01351 2.34354-0.869637 2.78795-0.869637 3.23876-0.869637 3.60644-1.01351 3.88779-1.30446ZM2.78795 0.0511551C2.07817 0.0511551 1.47711-0.185437 0.984732-0.665017 0.498762-1.1414 0.255776-1.74567 0.255776-2.48102 0.255776-3.22277 0.498762-3.83024 0.984732-4.30981 1.47711-4.7958 2.07817-5.03878 2.78795-5.03878 3.50413-5.03878 4.10519-4.7958 4.59118-4.30981 5.08354-3.83024 5.33292-3.22277 5.33292-2.48102 5.33292-1.74567 5.08354-1.1414 4.59118-0.665017 4.10519-0.185437 3.50413 0.0511551 2.78795 0.0511551Z" fill="#EFEFEF" transform="matrix(1.00343 0 0 1 620.321 191.556)"/><path d="M0.242987-4.19472 0.242987-4.96205 3.91337-4.96205 3.91337-4.19472 2.57054-4.19472 2.57054 0 1.57302 0 1.57302-4.19472Z" fill="#EFEFEF" transform="matrix(1.00343 0 0 1 627.881 191.556)"/><path d="M0.537129 0 0.537129-4.96205 1.53465-4.96205 1.53465 0Z" fill="#EFEFEF" transform="matrix(1.00343 0 0 1 634 191.556)"/><path d="M0.984732-0.677805C0.498762-1.15419 0.255776-1.75846 0.255776-2.49382 0.255776-3.22597 0.498762-3.83024 0.984732-4.30981 1.47711-4.7958 2.08458-5.03878 2.80075-5.03878 3.33787-5.03878 3.81426-4.89811 4.23309-4.61675 4.64872-4.34179 4.94926-3.95813 5.1283-3.46576L3.92616-3.46576C3.70235-3.90057 3.32828-4.11799 2.80075-4.11799 2.34674-4.11799 1.98226-3.96772 1.7009-3.67038 1.41956-3.36985 1.27888-2.97339 1.27888-2.48102 1.27888-1.99505 1.41956-1.60179 1.7009-1.30446 1.98226-1.01351 2.34674-0.869637 2.80075-0.869637 3.32828-0.869637 3.70235-1.08704 3.92616-1.52187L5.1283-1.52187C4.94926-1.0263 4.64872-0.642636 4.23309-0.370875 3.81426-0.0959162 3.33787 0.0383663 2.80075 0.0383663 2.08458 0.0383663 1.47711-0.198226 0.984732-0.677805Z" fill="#EFEFEF" transform="matrix(1.00343 0 0 1 638.03 191.556)"/><path d="M2.13573-4.23309C1.9375-4.23309 1.77764-4.18193 1.64975-4.07962 1.52826-3.97731 1.47071-3.83663 1.47071-3.65759 1.47071-3.47855 1.51228-3.33787 1.59859-3.23556 1.69132-3.13325 1.81601-3.05012 1.96947-2.99257 2.12294-2.94142 2.2892-2.89346 2.46823-2.8519 2.64728-2.80714 2.82632-2.75278 3.00537-2.68564 3.1844-2.6249 3.35066-2.54816 3.50413-2.45545 3.65759-2.36912 3.77909-2.24123 3.875-2.07178 3.96772-1.89913 4.01568-1.69132 4.01568-1.44513 4.01568-1.03589 3.84942-0.681002 3.51692-0.383663 3.1908-0.0927184 2.76238 0.0511551 2.22525 0.0511551 1.68812 0.0511551 1.2533-0.0767327 0.920792-0.332508 0.588284-0.588284 0.42203-0.94637 0.42203-1.40677L1.49628-1.40677C1.52826-0.962355 1.77764-0.741749 2.23804-0.741749 2.46823-0.741749 2.64728-0.799298 2.77516-0.920792 2.90945-1.03909 2.97978-1.19575 2.97978-1.39397 2.97978-1.58901 2.89026-1.74247 2.71122-1.85437 2.53857-1.97267 2.32756-2.05899 2.07178-2.11014 1.8224-2.1677 1.57622-2.23804 1.33003-2.31476 1.08065-2.3979 0.869637-2.54497 0.690594-2.74959 0.511551-2.95421 0.42203-3.21638 0.42203-3.54249 0.42203-3.9933 0.58189-4.35458 0.908007-4.62954 1.24051-4.9013 1.66254-5.03878 2.17409-5.03878 2.69204-5.03878 3.10768-4.91728 3.41461-4.68069 3.72793-4.4505 3.90057-4.09241 3.92616-3.60644L2.83911-3.60644C2.81992-3.80146 2.74959-3.95493 2.6217-4.06683 2.50021-4.17553 2.34035-4.23309 2.13573-4.23309Z" fill="#EFEFEF" transform="matrix(1.00343 0 0 1 645.468 191.556)"/></g></g></g></g></svg>